<svg version="1.1" xmlns="http://www.w3.org/2000/svg" xmlns:xlink="http://www.w3.org/1999/xlink" viewBox="0 0 172 172" width="172"  height="172" ><g fill="none" fill-rule="nonzero" stroke="none" stroke-width="1" stroke-linecap="butt" stroke-linejoin="miter" stroke-miterlimit="10" stroke-dasharray="" stroke-dashoffset="0" font-family="none" font-weight="none" font-size="none" text-anchor="none" style="mix-blend-mode: normal"><path d="M0,172v-172h172v172z" fill="none"></path><g fill="#ffffff"><path d="M102.04802,35.83333c-2.9383,0.04238 -5.29803,2.43639 -5.29802,5.375v23.29167h-69.875c-2.96841,0.0003 -5.3747,2.40659 -5.375,5.375v32.25c0.0003,2.96841 2.40659,5.3747 5.375,5.375h69.875v23.29167c0.00136,2.2119 1.35747,4.19718 3.4174,5.00291c2.05993,0.80572 4.40313,0.2674 5.90486,-1.35658l43,-46.58333c1.95715,-2.1195 1.89228,-5.40599 -0.14697,-7.44661l-43,-43c-1.02666,-1.02708 -2.4252,-1.59508 -3.87728,-1.57471zM107.5,54.18392l30.17139,30.17139l-30.17139,32.69091v-14.92122c-0.0003,-2.96841 -2.40659,-5.3747 -5.375,-5.375h-69.875v-21.5h69.875c2.96841,-0.0003 5.3747,-2.40659 5.375,-5.375z"></path></g></g></svg>