<svg version="1.1" xmlns="http://www.w3.org/2000/svg" xmlns:xlink="http://www.w3.org/1999/xlink" viewBox="0 0 172 172" width="172"  height="172" ><g fill="none" fill-rule="nonzero" stroke="none" stroke-width="1" stroke-linecap="butt" stroke-linejoin="miter" stroke-miterlimit="10" stroke-dasharray="" stroke-dashoffset="0" font-family="none" font-weight="none" font-size="none" text-anchor="none" style="mix-blend-mode: normal"><path d="M0,172v-172h172v172z" fill="none"></path><g fill="#ffffff"><path d="M19.51237,14.34033c-1.75232,0.06361 -3.36348,0.97789 -4.31675,2.44961c-0.95327,1.47172 -1.12882,3.31587 -0.47036,4.94102l26.05615,64.26904l-26.05615,64.26904c-0.84139,2.07238 -0.31162,4.44921 1.33022,5.96811c1.64184,1.5189 4.05264,1.86244 6.05341,0.86262l132.58333,-66.29167c1.82123,-0.91054 2.97168,-2.77194 2.97168,-4.80811c0,-2.03617 -1.15045,-3.89756 -2.97168,-4.80811l-132.58333,-66.29167c-0.80504,-0.4009 -1.6978,-0.5934 -2.59652,-0.5599zM30.03841,30.88525l110.23649,55.11475l-110.23649,55.11474l20.17025,-49.73974h48.33301c1.93842,0.02741 3.74144,-0.99102 4.71865,-2.66532c0.97721,-1.6743 0.97721,-3.74507 0,-5.41937c-0.97721,-1.6743 -2.78023,-2.69273 -4.71865,-2.66532h-48.33301z"></path></g></g></svg>