<svg version="1.1" xmlns="http://www.w3.org/2000/svg" xmlns:xlink="http://www.w3.org/1999/xlink" viewBox="0 0 172 172" width="172"  height="172" ><g fill="none" fill-rule="nonzero" stroke="none" stroke-width="1" stroke-linecap="butt" stroke-linejoin="miter" stroke-miterlimit="10" stroke-dasharray="" stroke-dashoffset="0" font-family="none" font-weight="none" font-size="none" text-anchor="none" style="mix-blend-mode: normal"><path d="M0,172v-172h172v172z" fill="none"></path><g fill="#ffffff"><path d="M85.91601,17.83968c-2.96578,0.04633 -5.33356,2.48615 -5.29101,5.45199v57.33333h-57.33333c-1.93842,-0.02741 -3.74144,0.99102 -4.71865,2.66532c-0.97721,1.6743 -0.97721,3.74507 0,5.41937c0.97721,1.6743 2.78023,2.69273 4.71865,2.66532h57.33333v57.33333c-0.02741,1.93842 0.99102,3.74144 2.66532,4.71865c1.6743,0.97721 3.74507,0.97721 5.41937,0c1.6743,-0.97721 2.69273,-2.78023 2.66532,-4.71865v-57.33333h57.33333c1.93842,0.02741 3.74144,-0.99102 4.71865,-2.66532c0.97721,-1.6743 0.97721,-3.74507 0,-5.41937c-0.97721,-1.6743 -2.78023,-2.69273 -4.71865,-2.66532h-57.33333v-57.33333c0.02085,-1.45347 -0.54782,-2.85342 -1.57634,-3.88062c-1.02852,-1.0272 -2.4292,-1.59408 -3.88264,-1.57136z"></path></g></g></svg>