<svg fill="#000000" xmlns="http://www.w3.org/2000/svg"  viewBox="0 0 48 48" width="24px" height="24px"><path d="M34,4h-3.596c-1.48,0-2.838,0.817-3.532,2.123L23.75,12H13c-1.105,0-2,0.895-2,2v5.956c0,1.102,0.891,1.996,1.993,2 l5.458,0.018l-6.75,12.705C11.241,35.547,11,36.513,11,37.495V42c0,1.105,0.895,2,2,2h3.561c1.498,0,2.87-0.837,3.556-2.168 l3.027-5.875l10.85,0.037C35.1,35.997,36,35.1,36,33.993V28c0-1.105-0.895-2-2-2h-5.727l7.061-13.707 C35.772,11.443,36,10.501,36,9.545V6C36,4.895,35.105,4,34,4z"/></svg>