<svg width="32" height="32" viewBox="0 0 32 32" fill="none" xmlns="http://www.w3.org/2000/svg">
<path d="M16.4881 3C17.4335 2.99962 18.3387 3.37415 18.9977 4.03828C19.6566 4.70241 20.0131 5.59957 19.9845 6.43688L19.9958 6.6338C20.0188 6.82773 20.0832 7.01488 20.1877 7.18739C20.3913 7.52756 20.7247 7.77441 21.1142 7.87352C21.5038 7.97262 21.9176 7.91583 22.3095 7.69118L22.528 7.58066C24.1679 6.8253 26.1348 7.42557 27.0445 8.97237L27.862 10.3623C27.8836 10.399 27.9026 10.4368 27.9189 10.4757L27.9948 10.6246C28.726 12.1536 28.2058 13.9724 26.8166 14.8964L26.4735 15.1076C26.2942 15.2301 26.1446 15.3901 26.0322 15.5824C25.8291 15.9239 25.7734 16.3306 25.8773 16.7125C25.9813 17.0944 26.2363 17.4199 26.6232 17.6391L26.8458 17.7788C27.5182 18.2396 28.004 18.9188 28.2159 19.6973C28.4549 20.5756 28.3267 21.5111 27.8532 22.3072L26.9737 23.7427L26.8411 23.9452C25.8078 25.401 23.8014 25.8458 22.2703 24.9799L22.0888 24.8883C21.8995 24.8054 21.6952 24.7598 21.5093 24.7547C21.1048 24.7528 20.7163 24.9094 20.4303 25.1896C20.1443 25.4699 19.9845 25.8505 19.9855 26.2931L19.9747 26.5219C19.8266 28.2938 18.3126 29.6667 16.4885 29.6667H14.8414C12.9096 29.6667 11.3435 28.1323 11.3455 26.3005L11.3342 26.1035C11.3112 25.9096 11.2467 25.7225 11.1369 25.541C10.9378 25.2 10.6079 24.951 10.2205 24.8494C9.83312 24.7479 9.42038 24.8021 9.02087 25.0284L8.78349 25.1446C8.0328 25.4753 7.18604 25.5364 6.3926 25.3155C5.49742 25.0662 4.74052 24.4777 4.29883 23.6965L3.44905 22.2589L3.33595 22.0459C2.5621 20.4455 3.16869 18.5216 4.7082 17.6499L4.8486 17.5638C5.25988 17.2849 5.50649 16.8251 5.50649 16.3333C5.50649 15.7986 5.21532 15.3045 4.70598 15.0153L4.49931 14.8854C3.01334 13.873 2.55932 11.9073 3.47986 10.3426L4.34557 8.94888C5.30838 7.31168 7.44207 6.74689 9.08313 7.66895L9.26078 7.76173C9.44188 7.84317 9.6386 7.8864 9.82802 7.88837C10.6632 7.88846 11.3437 7.23136 11.3563 6.38908L11.3677 6.13041C11.4361 5.32955 11.7908 4.57693 12.3706 4.0061C13.0248 3.36207 13.914 3 14.8414 3H16.4881ZM16.4885 4.93032H14.8414C14.4382 4.93032 14.0516 5.08774 13.7671 5.36776C13.515 5.61595 13.3608 5.94321 13.3337 6.24881L13.3158 6.65534C13.1779 8.42783 11.6663 9.81888 9.81768 9.81864C9.34117 9.81379 8.87141 9.71057 8.39235 9.49367L8.13587 9.36114C7.40506 8.95087 6.47321 9.19754 6.04076 9.93233L5.17504 11.3261C4.77836 12.0006 4.97675 12.8595 5.59098 13.279L5.9386 13.4947C6.89595 14.1289 7.47672 15.1906 7.47672 16.3333C7.47672 17.4594 6.91217 18.512 5.93626 19.1728L5.72852 19.3008C5.04472 19.6884 4.78083 20.5253 5.09865 21.1844L5.1737 21.3265L6.01269 22.7445C6.20971 23.0928 6.54027 23.3499 6.93123 23.4587C7.27774 23.5552 7.64758 23.5285 7.93611 23.4024L8.08106 23.3329C8.88127 22.8754 9.83485 22.7501 10.7298 22.9847C11.6248 23.2194 12.387 23.7946 12.8392 24.5691C13.0824 24.9706 13.2363 25.4176 13.2959 25.9313L13.3227 26.4027C13.4057 27.1526 14.054 27.7363 14.8414 27.7363H16.4885C17.285 27.7363 17.9465 27.1364 18.0086 26.4015L18.0162 26.2561C18.0117 25.3446 18.3793 24.4692 19.0371 23.8247C19.695 23.1802 20.5885 22.82 21.5404 22.8248C22.0075 22.837 22.4672 22.9396 22.937 23.1467L23.3583 23.3575C24.0196 23.6419 24.8039 23.4344 25.2015 22.8756L25.2981 22.7276L26.1573 21.3248C26.3603 20.9833 26.4161 20.5766 26.3121 20.1947C26.22 19.8562 26.0088 19.5609 25.7527 19.3842L25.3897 19.1594C24.6955 18.6997 24.191 18.0083 23.9736 17.2099C23.7346 16.3315 23.8628 15.3961 24.3262 14.6168C24.5799 14.1829 24.9285 13.8098 25.3831 13.5004L25.5974 13.3682C26.2801 12.9769 26.5438 12.1401 26.2283 11.4784L26.134 11.3004L26.1171 11.263L25.3374 9.93611C24.9686 9.309 24.2011 9.03804 23.55 9.25213L23.402 9.31021L23.2644 9.37887C22.4668 9.83921 21.5151 9.96982 20.6191 9.74188C19.7231 9.51395 18.9564 8.9462 18.4908 8.16821C18.2476 7.76672 18.0937 7.31979 18.0341 6.80605L18.0166 6.46998C18.0284 6.06564 17.8727 5.67382 17.585 5.38377C17.2972 5.09372 16.9018 4.93032 16.4885 4.93032ZM15.671 11.9758C18.1274 11.9758 20.1187 13.9267 20.1187 16.3333C20.1187 18.74 18.1274 20.6909 15.671 20.6909C13.2146 20.6909 11.2233 18.74 11.2233 16.3333C11.2233 13.9267 13.2146 11.9758 15.671 11.9758ZM15.671 13.9061C14.3027 13.9061 13.1935 14.9928 13.1935 16.3333C13.1935 17.6739 14.3027 18.7606 15.671 18.7606C17.0392 18.7606 18.1484 17.6739 18.1484 16.3333C18.1484 14.9928 17.0392 13.9061 15.671 13.9061Z" fill="#000"/>
</svg>
