<svg width="32" height="32" viewBox="0 0 32 32" fill="none" xmlns="http://www.w3.org/2000/svg">
<path d="M18.1874 26.0926C18.5573 25.7625 19.125 25.742 19.52 26.066C19.9545 26.4223 20.0154 27.0605 19.656 27.4914C18.7702 28.6402 17.3998 29.3198 15.9416 29.3333L15.6521 29.3211C14.3077 29.2235 13.0634 28.5606 12.239 27.4914L12.1514 27.3691C11.8939 26.9468 11.9801 26.3899 12.3751 26.066C12.8095 25.7096 13.453 25.77 13.8123 26.2009C13.9701 26.4101 14.1574 26.5958 14.3683 26.7523C14.9322 27.1686 15.6402 27.3445 16.3354 27.241C17.0305 27.1375 17.6552 26.7631 18.0709 26.2009H18.0827L18.1874 26.0926ZM15.9535 2.66663C20.0464 2.66663 24.6362 5.55268 25.1567 10.1868V12.6036C25.3344 13.4758 25.7426 14.2856 26.3396 14.95C26.375 14.9901 26.4067 15.0333 26.4343 15.079C26.9755 15.8938 27.2861 16.8379 27.3333 17.8125L27.2978 18.0589C27.3386 19.3926 26.8934 20.6963 26.0439 21.731C24.959 22.9016 23.4759 23.6329 21.88 23.7841C17.9488 24.2156 13.9817 24.2156 10.0506 23.7841C8.47802 23.6226 7.02072 22.8916 5.95765 21.731C5.09411 20.7111 4.63562 19.4137 4.66826 18.0824V17.9181C4.73329 16.9143 5.06823 15.9462 5.63826 15.1142L5.7329 14.9969C6.32571 14.3297 6.73337 13.5211 6.91583 12.6505V10.2337L6.98125 10.0987C7.18012 9.75595 7.56747 9.55548 7.97314 9.59937C8.42953 9.64875 8.79602 9.99516 8.86768 10.4449V12.8617C8.87228 12.9046 8.87228 12.9478 8.86768 12.9907C8.62137 14.2011 8.05838 15.3258 7.23522 16.2522C6.91822 16.753 6.73879 17.3273 6.71473 17.9181V18.1762C6.68847 19.0072 6.96573 19.8196 7.49547 20.464C8.22991 21.2163 9.21205 21.6825 10.2635 21.7779C14.0692 22.1886 17.9086 22.1886 21.7144 21.7779C22.7946 21.6796 23.8007 21.1911 24.5416 20.4053C25.0453 19.7762 25.3092 18.991 25.2868 18.188V17.9181C25.2625 17.3253 25.0876 16.7482 24.7782 16.2405C23.9207 15.3246 23.3246 14.1989 23.0511 12.979C23.0465 12.9361 23.0465 12.8928 23.0511 12.8499V10.4214C22.708 6.87839 19.1474 4.68452 16.0481 4.68452C14.7304 4.68151 13.4345 5.01699 12.2864 5.65827L12.1457 5.72807C11.8567 5.8448 11.5259 5.8243 11.251 5.66587C10.9303 5.48103 10.7365 5.13773 10.7452 4.76996C10.7538 4.4022 10.9636 4.06826 11.2927 3.89848C12.7153 3.10139 14.3195 2.6774 15.9535 2.66663Z" fill="#000"/>
</svg>
