<svg width="32" height="32" viewBox="0 0 32 32" fill="none" xmlns="http://www.w3.org/2000/svg">
<path d="M24.3169 18.7636C24.6934 18.7636 25.0698 18.8054 25.4369 18.8875C26.0706 19.0284 26.469 19.6524 26.3247 20.2764C26.1788 20.9003 25.5483 21.2951 24.9161 21.1512C23.2848 20.7826 21.6534 22.0662 21.6534 23.7152C21.6534 25.1644 22.8471 26.3442 24.3169 26.3442C25.7851 26.3442 26.9804 25.1644 26.9804 23.7152C26.9804 23.5665 26.9678 23.4194 26.9443 23.2785C26.8361 22.6453 27.2706 22.0476 27.9106 21.9408C28.549 21.8355 29.1576 22.2628 29.2643 22.8961C29.3098 23.1624 29.3333 23.4365 29.3333 23.7152C29.3333 26.4449 27.0824 28.6667 24.3169 28.6667C21.5499 28.6667 19.3005 26.4449 19.3005 23.7152C19.3005 20.9839 21.5499 18.7636 24.3169 18.7636ZM13.49 22.5536C14.1394 22.5536 14.6664 23.0739 14.6664 23.7149C14.6664 24.3559 14.1394 24.8761 13.49 24.8761H3.84308C3.19368 24.8761 2.66663 24.3559 2.66663 23.7149C2.66663 23.0739 3.19368 22.5536 3.84308 22.5536H13.49ZM7.68348 3.33337C10.4505 3.33337 12.6999 5.55367 12.6999 8.28491C12.6999 11.0146 10.4505 13.2364 7.68348 13.2364C4.91647 13.2364 2.6671 11.0146 2.6671 8.28491C2.6671 8.00621 2.69063 7.73216 2.73611 7.46584C2.84278 6.83258 3.44198 6.40989 4.08982 6.51053C4.72981 6.61736 5.16431 7.21502 5.05607 7.84828C5.03255 7.98918 5.02 8.13627 5.02 8.28491C5.02 9.73414 6.2137 10.914 7.68348 10.914C9.15326 10.914 10.347 9.73414 10.347 8.28491C10.347 6.83413 9.15326 5.65586 7.68348 5.65586C7.4827 5.65586 7.28192 5.67753 7.09055 5.72089C6.45527 5.87107 5.82469 5.4778 5.67724 4.85383C5.52979 4.22985 5.92351 3.60433 6.55722 3.46034C6.92428 3.37518 7.30231 3.33337 7.68348 3.33337ZM28.1565 7.1232C28.8059 7.1232 29.333 7.64344 29.333 8.28444C29.333 8.92545 28.8059 9.44568 28.1565 9.44568H18.5112C17.8618 9.44568 17.3348 8.92545 17.3348 8.28444C17.3348 7.64344 17.8618 7.1232 18.5112 7.1232H28.1565Z" fill="#2C394A"/>
</svg>
