<svg width="32" height="32" viewBox="0 0 32 32" fill="none" xmlns="http://www.w3.org/2000/svg">
<path d="M5.99916 9.3725C6.41981 9.24286 6.88456 9.39157 7.14976 9.75622C7.44442 10.1614 7.40956 10.7188 7.06671 11.0841L6.12758 11.7797C5.68259 12.1494 5.42372 12.6969 5.42033 13.2754V23.8841C5.43303 25.6122 6.8342 27.0082 8.56236 27.0145H13.8957V27.0377C14.472 27.0377 14.9392 27.5049 14.9392 28.0812C14.9392 28.6575 14.472 29.1247 13.8957 29.1247H8.56236C5.67712 29.1183 3.33975 26.7809 3.33337 23.8957V13.2754C3.35182 12.0482 3.92787 10.896 4.89859 10.1449L5.86091 9.42611L5.99916 9.3725ZM12.829 3.73335C14.5896 2.31821 17.0975 2.31821 18.858 3.73335L26.8696 10.1218C27.8189 10.8853 28.3763 12.034 28.3884 13.2522L28.3769 23.8841C28.3769 26.772 26.0358 29.1131 23.1479 29.1131H20.829C19.4312 29.1131 18.2963 27.9833 18.2899 26.5855V21.7855L18.2791 21.6647C18.2221 21.3509 17.9476 21.1131 17.6174 21.1131H14.1392C13.9588 21.113 13.786 21.1855 13.6595 21.3141C13.5331 21.4427 13.4636 21.6168 13.4667 21.7971V23.629C13.4667 24.2053 12.9995 24.6725 12.4232 24.6725C11.8469 24.6725 11.3798 24.2053 11.3798 23.629V21.7971C11.3798 21.0622 11.6717 20.3574 12.1914 19.8377C12.711 19.3181 13.4158 19.0261 14.1508 19.0261H17.629C19.1549 19.0325 20.3885 20.2712 20.3884 21.7971V26.5855C20.3884 26.8289 20.5857 27.0261 20.829 27.0261H23.2058C24.9347 27.0261 26.3363 25.6246 26.3363 23.8957V13.2754C26.3278 12.687 26.0553 12.1337 25.5942 11.7681L17.5826 5.37973C16.5724 4.54801 15.1146 4.54801 14.1044 5.37973L11.5305 7.30437C11.0534 7.64695 10.389 7.53794 10.0464 7.06089C9.70384 6.58384 9.81285 5.91941 10.2899 5.57683L12.829 3.73335Z" fill="#000"/>
</svg>
