<svg width="32" height="32" viewBox="0 0 32 32" fill="none" xmlns="http://www.w3.org/2000/svg">
<path d="M21.7333 2.66663C26.248 2.66663 29.28 5.82796 29.28 10.532V21.4C29.28 26.104 26.248 29.2653 21.7333 29.2653H17.3066C16.7546 29.2653 16.3066 28.8173 16.3066 28.2653C16.3066 27.7133 16.7546 27.2653 17.3066 27.2653H21.7333C25.1026 27.2653 27.28 24.9626 27.28 21.4V10.532C27.28 6.96796 25.1026 4.66663 21.7333 4.66663H10.2C6.83863 4.66663 4.66663 6.96796 4.66663 10.532V21.4C4.66663 24.9626 6.83863 27.2653 10.2 27.2653H11.1613C11.7133 27.2653 12.1613 27.7133 12.1613 28.2653C12.1613 28.8173 11.7133 29.2653 11.1613 29.2653H10.2C5.69463 29.2653 2.66663 26.104 2.66663 21.4V10.532C2.66663 5.82796 5.69463 2.66663 10.2 2.66663H21.7333ZM20.3886 15.3912C21.31 15.3632 22.2113 15.7138 22.854 16.3765L25.6233 19.2312C26.0073 19.6285 25.998 20.2618 25.6006 20.6458C25.2046 21.0312 24.5713 21.0192 24.1873 20.6245L21.418 17.7698C21.1673 17.5112 20.8393 17.3658 20.47 17.3898C20.11 17.4045 19.786 17.5672 19.5566 17.8458L16.5846 21.4618C16.0606 22.0992 15.2873 22.4858 14.4633 22.5218C13.638 22.5392 12.8353 22.2405 12.2566 21.6525L11.0753 20.4472C10.902 20.2685 10.682 20.1112 10.4366 20.1725C10.1953 20.1738 9.97263 20.2712 9.80729 20.4445L7.76729 22.5978C7.57129 22.8058 7.30729 22.9098 7.04196 22.9098C6.79529 22.9098 6.54729 22.8192 6.35396 22.6365C5.95396 22.2565 5.93663 21.6232 6.31663 21.2218L8.35529 19.0698C8.89929 18.4938 9.63529 18.1752 10.4286 18.1725C11.194 18.2232 11.9606 18.4832 12.51 19.0538L13.6846 20.2512C13.8673 20.4378 14.1073 20.5418 14.3753 20.5232C14.6366 20.5112 14.8726 20.3938 15.0393 20.1912L18.0113 16.5752C18.598 15.8618 19.4646 15.4298 20.3886 15.3912ZM11.4137 8.83943C13.2537 8.83943 14.751 10.3368 14.751 12.1781C14.751 14.0194 13.2537 15.5168 11.4137 15.5168C9.57236 15.5168 8.07503 14.0194 8.07503 12.1781C8.07503 10.3368 9.57236 8.83943 11.4137 8.83943ZM11.4137 10.8394C10.675 10.8394 10.075 11.4394 10.075 12.1781C10.075 12.9168 10.675 13.5168 11.4137 13.5168C12.151 13.5168 12.751 12.9168 12.751 12.1781C12.751 11.4394 12.151 10.8394 11.4137 10.8394Z" fill="#000"/>
</svg>
