<svg version="1.1" xmlns="http://www.w3.org/2000/svg" xmlns:xlink="http://www.w3.org/1999/xlink" viewBox="0 0 172 172" width="172"  height="172" ><g fill="none" fill-rule="nonzero" stroke="none" stroke-width="1" stroke-linecap="butt" stroke-linejoin="miter" stroke-miterlimit="10" stroke-dasharray="" stroke-dashoffset="0" font-family="none" font-weight="none" font-size="none" text-anchor="none" style="mix-blend-mode: normal"><path d="M0,172v-172h172v172z" fill="none"></path><g fill="#ffffff"><path d="M86,14.33333c-39.51676,0 -71.66667,32.14993 -71.66667,71.66667c0,39.51673 32.1499,71.66667 71.66667,71.66667c39.51676,0 71.66667,-32.14993 71.66667,-71.66667c0,-39.51673 -32.1499,-71.66667 -71.66667,-71.66667zM86,25.08333c11.37655,0 21.9743,3.15658 31.07422,8.55941c-0.34577,0.35805 -0.64769,0.76838 -0.82585,1.27376l-0.71386,2.02962c-0.51959,1.47633 -0.0154,3.11699 1.23877,4.05224l1.23877,0.93083c1.90992,1.43333 1.90992,4.2986 0,5.73193l-1.57471,1.18278c-0.63067,0.473 -1.38894,0.71387 -2.1486,0.71387c-0.54467,0 -1.09745,-0.12351 -1.6027,-0.37793l-4.42318,-2.21858c-0.50167,-0.25083 -1.05428,-0.37793 -1.6097,-0.37793h-8.80436c-1.04633,0 -2.03466,0.46085 -2.7155,1.25277l-8.27246,9.63721c-0.86717,1.01409 -1.09639,2.43107 -0.60189,3.66732l0.75586,1.89665c0.5805,1.45125 1.94805,2.25358 3.33838,2.25358c0.89942,0 1.81345,-0.33672 2.52653,-1.04981c0,0 2.30201,-1.06665 3.07243,-4.52816c0.31533,-1.42975 1.68383,-2.37956 3.14941,-2.37956h3.38037c0.92092,0 1.80404,0.35598 2.47054,0.99382l1.77067,1.68669c1.45483,1.39033 1.48557,3.70746 0.06299,5.13005l-2.76448,2.76448c-0.33325,0.32967 -0.7282,0.59769 -1.16178,0.77686l-11.02295,4.58415c-0.30458,0.12542 -0.58884,0.29265 -0.84684,0.49691l-9.95215,7.87353c-0.63783,0.50167 -1.41575,0.77686 -2.22558,0.77686h-1.77067c-2.967,0 -5.375,2.408 -5.375,5.375c0,2.967 2.408,5.375 5.375,5.375h0.83285c1.42975,0 2.83033,-0.39545 4.05224,-1.14079l7.28564,-4.45117c0.5805,-0.35475 1.22724,-0.5249 1.86865,-0.5249c1.00692,0 1.99575,0.42211 2.6945,1.22477l3.2054,3.66732c0.68083,0.77758 1.66591,1.22477 2.7015,1.22477h0.65088c1.978,0 3.58333,-1.60533 3.58333,-3.58333v-2.1696c0,-0.90658 0.34249,-1.77604 0.95882,-2.44254l4.09424,-4.40218c0.26875,-0.28667 0.58324,-0.52753 0.93083,-0.71387l6.65576,-3.56934c0.55183,-0.29383 1.1241,-0.42692 1.68669,-0.42692c1.87767,0 3.59033,1.50142 3.59033,3.58333v2.97445c0,1.978 -1.60533,3.58333 -3.58333,3.58333h-3.58333c-1.978,0 -3.58333,1.60533 -3.58333,3.58333c0,1.978 1.60533,3.58333 3.58333,3.58333h5.26302c1.18967,0 2.30795,0.58929 2.97445,1.57471l7.75456,11.49186c0.69517,1.032 1.82778,1.57471 2.97445,1.57471c0.78117,0 1.57667,-0.25352 2.23958,-0.78385l2.54053,-2.02963c0.84567,-0.68083 1.33675,-1.71373 1.33675,-2.79948v-1.86165c0,-1.978 -1.60533,-3.58333 -3.58333,-3.58333c-1.978,0 -3.58333,-1.60533 -3.58333,-3.58333c0,-1.978 1.60533,-3.58333 3.58333,-3.58333h1.28776c0.33325,0 0.66432,-0.04681 0.98682,-0.13997l8.42643,-2.44255c-0.23803,14.69747 -5.63802,28.09567 -14.48731,38.48584c0.12839,-0.38973 0.20296,-0.79714 0.20296,-1.21077v-2.1346c0,-2.15 -1.74127,-3.89128 -3.89128,-3.89128c-1.3115,0 -2.53773,-0.66017 -3.25439,-1.75667l-7.87353,-14.08838c-0.74175,-1.13233 -1.97873,-1.75667 -3.25439,-1.75667c-0.58408,0 -1.18026,0.13001 -1.73568,0.40592l-8.27246,4.53516c-0.54467,0.27233 -1.14084,0.40592 -1.73568,0.40592c-0.41208,0 -0.82702,-0.06338 -1.22477,-0.19596l-13.37451,-4.8431c-1.19683,-0.39775 -2.4379,-0.59489 -3.68132,-0.59489c-1.24342,0 -2.49148,0.19714 -3.68831,0.59489l-12.15674,4.8431c-0.97825,0.32608 -1.79133,1.02472 -2.25358,1.94564l-4.47217,8.91634c-0.50525,1.0105 -0.54898,2.18365 -0.11898,3.2264l4.26221,10.28809c0.602,1.45483 2.01725,2.40755 3.59033,2.40755h7.43962c1.2255,0 2.37984,-0.57546 3.11442,-1.55371l1.09879,-1.46273c0.77758,-1.03917 1.94626,-1.55371 3.11442,-1.55371c1.16817,0 2.32626,0.51813 3.10742,1.55371l1.48372,1.98063c0.50167,0.67367 0.77686,1.48848 0.77686,2.33056v12.85661c-1.19287,0.06923 -2.37274,0.18197 -3.58333,0.18197c-33.70704,0 -60.91667,-27.20965 -60.91667,-60.91667c0,-4.7965 0.60943,-9.43973 1.65169,-13.91341l5.68994,-3.2614c0.48017,-0.27592 1.01588,-0.41292 1.56771,-0.41292h2.26058c1.74866,0 3.17041,-1.42174 3.17041,-3.17041v-11.25391c0,-1.74867 1.41475,-3.17041 3.16341,-3.17041c1.36883,0 2.58302,-0.87585 3.00944,-2.1766l5.69694,-12.70964c2.89338,-2.00694 5.9801,-3.73284 9.21029,-5.22103l-6.55078,14.29134c-0.84208,2.54058 1.04656,5.16504 3.72331,5.16504h8.01351c1.75225,0 3.4283,-0.69181 4.66813,-1.93164l7.67057,-7.67058c0.73458,-0.73458 1.14778,-1.72873 1.14778,-2.77148v-1.6237c0,-2.16075 -1.75494,-3.91927 -3.91927,-3.91927h-1.6237c-1.03917,0 -2.04032,0.4132 -2.77848,1.14779l-2.42855,2.43555l-0.04199,-4.43018c-0.01173,-1.3606 -0.7031,-2.4772 -1.68669,-3.16341c6.06773,-2.01983 12.5457,-3.15641 19.30241,-3.15641zM130.18278,44.25277l0.14697,0.007c8.10847,8.61037 13.70949,19.57123 15.71207,31.78809l-9.60221,2.78548h-0.27295c-1.23625,0 -2.43667,0.1575 -3.58333,0.45491c-0.086,-7.79375 -6.42044,-14.11844 -14.22135,-14.17936c0.15767,-0.87792 0.23471,-1.76709 0.22396,-2.66651c-0.01075,-0.91375 -0.11119,-1.81983 -0.29394,-2.70849c1.65192,-0.48017 3.21498,-1.25999 4.59814,-2.29557l1.57471,-1.18278c3.5905,-2.69108 5.73193,-6.97753 5.73193,-11.46387c0,-0.17917 -0.00683,-0.35973 -0.014,-0.5389zM75.25,57.33333c-1.978,0 -3.58333,1.60533 -3.58333,3.58333v3.58333c0,1.978 1.60533,3.58333 3.58333,3.58333c1.978,0 3.58333,-1.60533 3.58333,-3.58333v-3.58333c0,-1.978 -1.60533,-3.58333 -3.58333,-3.58333zM84.28532,111.11833c0.07883,0 0.15571,0.01008 0.23096,0.02799l13.16455,4.77311l0.13997,0.04899l0.13298,0.04899c1.49067,0.4945 3.03906,0.74186 4.61214,0.74186c2.25392,0 4.51237,-0.5328 6.52978,-1.53971l0.18897,-0.09098l0.18197,-0.09798l2.1626,-1.18978l4.42318,7.90853l0.18197,0.32894l0.20296,0.31494c0.94958,1.44767 2.13119,2.69198 3.47135,3.69531l-8.13249,15.0682c-3.6348,1.69724 -7.45729,3.04459 -11.44287,4.00326v-11.2749c0,-3.14617 -1.03704,-6.26787 -2.92545,-8.78337l-1.48373,-1.98063c-2.74842,-3.66575 -7.12915,-5.85091 -11.71582,-5.85091c-3.86642,0 -7.58933,1.55713 -10.30908,4.24821l-1.16878,-2.82747l1.88965,-3.7723l9.50423,-3.78629c0.05375,-0.01075 0.10722,-0.014 0.16097,-0.014z"></path></g></g></svg>