<svg version="1.1" xmlns="http://www.w3.org/2000/svg" xmlns:xlink="http://www.w3.org/1999/xlink" viewBox="0 0 172 172" width="172"  height="172" ><g fill="none" fill-rule="nonzero" stroke="none" stroke-width="1" stroke-linecap="butt" stroke-linejoin="miter" stroke-miterlimit="10" stroke-dasharray="" stroke-dashoffset="0" font-family="none" font-weight="none" font-size="none" text-anchor="none" style="mix-blend-mode: normal"><path d="M0,172v-172h172v172z" fill="none"></path><g fill="#ffffff"><path d="M86,14.33333c-22.7504,0 -43.05602,10.66719 -56.17155,27.23193c-1.20163,1.50449 -1.50681,3.53677 -0.80006,5.32784c0.70675,1.79106 2.31747,3.06734 4.22268,3.34588c1.90521,0.27854 3.81389,-0.48319 5.00381,-1.99696c11.16514,-14.10142 28.34835,-23.15869 47.74512,-23.15869c33.70588,0 60.91667,27.21079 60.91667,60.91667c0,33.70588 -27.21079,60.91667 -60.91667,60.91667c-19.39677,0 -36.57998,-9.05727 -47.74512,-23.15869c-1.18992,-1.51377 -3.0986,-2.2755 -5.00381,-1.99696c-1.90521,0.27854 -3.51593,1.55482 -4.22268,3.34588c-0.70675,1.79106 -0.40157,3.82335 0.80006,5.32784c13.11553,16.56474 33.42115,27.23193 56.17155,27.23193c39.51595,0 71.66667,-32.15071 71.66667,-71.66667c0,-39.51595 -32.15071,-71.66667 -71.66667,-71.66667zM41.10335,59.07601c-1.39592,0.04068 -2.72121,0.62301 -3.69531,1.6237l-21.5,21.5c-2.09823,2.0991 -2.09823,5.50149 0,7.60059l21.5,21.5c1.34815,1.40412 3.35005,1.96971 5.23364,1.47866c1.88359,-0.49105 3.35456,-1.96202 3.84561,-3.84561c0.49105,-1.88359 -0.07455,-3.88549 -1.47866,-5.23364l-12.33171,-12.3317l73.03841,-0.06299c1.93838,0.02477 3.73995,-0.99603 4.7149,-2.67156c0.97496,-1.67552 0.97226,-3.7462 -0.00706,-5.41918c-0.97932,-1.67298 -2.78354,-2.68909 -4.72184,-2.65927l-73.01042,0.06299l12.31771,-12.31771c1.58706,-1.54566 2.06336,-3.90666 1.19966,-5.94673c-0.8637,-2.04007 -2.89048,-3.34134 -5.10493,-3.27756z"></path></g></g></svg>