<svg version="1.1" xmlns="http://www.w3.org/2000/svg" xmlns:xlink="http://www.w3.org/1999/xlink" viewBox="0 0 172 172" width="172"  height="172" ><g fill="none" fill-rule="nonzero" stroke="none" stroke-width="1" stroke-linecap="butt" stroke-linejoin="miter" stroke-miterlimit="10" stroke-dasharray="" stroke-dashoffset="0" font-family="none" font-weight="none" font-size="none" text-anchor="none" style="mix-blend-mode: normal"><path d="M0,172v-172h172v172z" fill="none"></path><g fill="#ffffff"><path d="M51.87435,21.42301c-0.26282,0.00646 -0.5248,0.03219 -0.78385,0.07699h-9.88216c-10.82086,0 -19.70833,8.88748 -19.70833,19.70833v89.58333c0,10.82086 8.88748,19.70833 19.70833,19.70833h6.28483c0.57703,0.09479 1.16565,0.09479 1.74268,0h73.50732c0.57703,0.09479 1.16565,0.09479 1.74268,0h6.30583c10.82086,0 19.70833,-8.88748 19.70833,-19.70833v-75.25c-0.0005,-1.53552 -0.65764,-2.99752 -1.80566,-4.01725l-32.25,-28.66667c-0.9835,-0.87419 -2.25348,-1.35728 -3.56934,-1.35775h-2.7015c-0.57703,-0.09479 -1.16565,-0.09479 -1.74268,0h-55.59066c-0.31897,-0.05468 -0.64222,-0.08045 -0.96582,-0.07699zM41.20833,32.25h5.375v19.70833c0,6.86192 5.67974,12.54167 12.54167,12.54167h43c6.86192,0 12.54167,-5.67974 12.54167,-12.54167v-16.29997l25.08333,22.29785v72.83545c0,5.01031 -3.94802,8.95833 -8.95833,8.95833h-1.79167v-41.20833c0,-6.86192 -5.67974,-12.54167 -12.54167,-12.54167h-60.91667c-6.86192,0 -12.54167,5.67974 -12.54167,12.54167v41.20833h-1.79167c-5.01031,0 -8.95833,-3.94802 -8.95833,-8.95833v-89.58333c0,-5.01031 3.94802,-8.95833 8.95833,-8.95833zM57.33333,32.25h46.58333v19.70833c0,1.05724 -0.73442,1.79167 -1.79167,1.79167h-43c-1.05724,0 -1.79167,-0.73442 -1.79167,-1.79167zM55.54167,96.75h60.91667c1.05724,0 1.79167,0.73442 1.79167,1.79167v41.20833h-64.5v-41.20833c0,-1.05724 0.73442,-1.79167 1.79167,-1.79167z"></path></g></g></svg>