<svg width="32" height="32" viewBox="0 0 32 32" fill="none" xmlns="http://www.w3.org/2000/svg">
<path d="M21.5963 4C25.8639 4.01305 29.3203 7.49494 29.3333 11.7941V13.7426L29.3247 13.8716C29.2622 14.3355 28.8674 14.6931 28.3898 14.6931L28.378 14.6693L28.2295 14.6575C28.0342 14.6261 27.8523 14.5335 27.7108 14.3909C27.5338 14.2127 27.4344 13.9709 27.4344 13.7188V11.7941C27.4025 8.5594 24.8073 5.94506 21.5963 5.91287H10.4036C7.19264 5.94506 4.59744 8.5594 4.56549 11.7941V20.2059C4.59744 23.4406 7.19264 26.0549 10.4036 26.0871H21.5963C24.8073 26.0549 27.4025 23.4406 27.4344 20.2059C27.4884 19.7188 27.8973 19.3503 28.3839 19.3503C28.8705 19.3503 29.2793 19.7188 29.3333 20.2059C29.3203 24.5051 25.8639 27.987 21.5963 28H10.4036C6.13329 27.9935 2.67312 24.5078 2.66663 20.2059V11.7941C2.66663 7.48952 6.13059 4 10.4036 4H21.5963ZM8.39254 11.1826C8.64089 11.1558 8.88954 11.2305 9.08267 11.3901L14.6259 15.8099C15.3184 16.3572 16.2923 16.3572 16.9848 15.8099L22.4691 11.3901H22.4809L22.5965 11.3106C22.9949 11.0775 23.5126 11.1635 23.8136 11.5327C23.9713 11.7307 24.0439 11.984 24.0151 12.2362C23.9863 12.4884 23.8585 12.7185 23.6603 12.8752L18.176 17.3069C16.7815 18.4374 14.7938 18.4374 13.3993 17.3069L7.90325 12.8752L7.80177 12.7781C7.49184 12.4346 7.4666 11.9067 7.76172 11.5327C7.91691 11.3355 8.14418 11.2094 8.39254 11.1826Z" fill="#000"/>
</svg>
