<svg width="32" height="32" viewBox="0 0 32 32" fill="none" xmlns="http://www.w3.org/2000/svg">
<path d="M25.3221 11.6442C25.8462 11.6882 26.2363 12.1589 26.1934 12.6962C26.1869 12.7855 25.4807 21.7521 25.0737 25.5133C24.824 27.8333 23.3272 29.2426 21.0722 29.284C19.3582 29.316 18.9433 29.3333 17.228 29.3333C16.9029 29.3333 16.5791 29.3333 16.254 29.332C15.7286 29.3293 15.3033 28.892 15.3059 28.352C15.3072 27.8146 15.7325 27.3813 16.2579 27.3813L16.7411 27.3825C17.35 27.3834 17.8387 27.3817 18.3033 27.3775L18.9943 27.3695C19.5751 27.3614 20.1934 27.3497 21.0371 27.3347C22.3362 27.3093 23.0372 26.644 23.1815 25.3C23.586 21.5654 24.2908 12.6282 24.2973 12.5389C24.3389 12.0016 24.8045 11.6162 25.3221 11.6442ZM6.67765 11.6438C7.20173 11.6198 7.6608 12.0025 7.70241 12.5398C7.70891 12.6291 8.40856 21.5423 8.81691 25.3063C8.95866 26.6223 9.6505 27.3023 10.8729 27.3289C11.3983 27.3396 11.8158 27.7863 11.8054 28.3249C11.7937 28.8569 11.3697 29.2796 10.8534 29.2796H10.8339C8.66735 29.2329 7.17052 27.7942 6.92474 25.5236C6.51379 21.729 5.81284 12.7851 5.80634 12.6945C5.76342 12.1585 6.15356 11.6878 6.67765 11.6438ZM18.7576 2.66663C19.941 2.66663 20.9814 3.48528 21.2883 4.6586C21.4249 5.17992 21.1232 5.71458 20.616 5.85458C20.1101 5.99458 19.5873 5.68525 19.4508 5.16392C19.3662 4.84259 19.0814 4.6186 18.7576 4.6186H13.2424C12.9186 4.6186 12.6338 4.84259 12.5492 5.16392L12.2462 6.7279C12.2046 6.93856 12.1396 7.13589 12.0616 7.32922H27.0481C27.5735 7.32922 28 7.76522 28 8.30387C28 8.84387 27.5735 9.27986 27.0481 9.27986H4.95064C4.42525 9.27986 4 8.84387 4 8.30387C4 7.76522 4.42525 7.32922 4.95064 7.32922H9.20965C9.77665 7.32922 10.2695 6.91456 10.3801 6.34657L10.6974 4.71993C11.0186 3.48528 12.059 2.66663 13.2424 2.66663H18.7576Z" fill="#000"/>
</svg>
