<svg width="32" height="32" viewBox="0 0 32 32" fill="none" xmlns="http://www.w3.org/2000/svg">
<path d="M23.0475 11.4689C26.1459 11.4689 28.6667 14.053 28.6667 17.2306V23.5599C28.6667 26.7426 26.1396 29.3333 23.0336 29.3333C22.4953 29.3333 22.0595 28.8853 22.0595 28.3334C22.0595 27.7815 22.4953 27.3335 23.0336 27.3335C25.0654 27.3335 26.716 25.6402 26.716 23.5599V17.2306C26.716 15.1555 25.0705 13.4687 23.0475 13.4687H21.8556C21.3172 13.4687 20.8802 13.0207 20.8802 12.4688C20.8802 11.9169 21.3172 11.4689 21.8556 11.4689H23.0475ZM10.1458 11.4686C10.6829 11.4686 11.1199 11.9166 11.1199 12.4685C11.1199 13.0204 10.6829 13.4684 10.1458 13.4684H8.96647C6.93465 13.4684 5.28412 15.1618 5.28412 17.2434V23.5713C5.28412 25.6464 6.93085 27.3332 8.95253 27.3332H18.5986C19.1369 27.3332 19.574 27.7812 19.574 28.3331C19.574 28.885 19.1369 29.333 18.5986 29.333H8.95253C5.85414 29.333 3.33337 26.7489 3.33337 23.5713L3.33337 17.2434C3.33337 14.0593 5.86048 11.4686 8.96647 11.4686H10.1458ZM15.6279 2.74224C15.9927 2.58771 16.4132 2.67472 16.6919 2.9604L20.3768 6.75482C20.5655 6.9509 20.6618 7.20542 20.6618 7.46124C20.6618 7.71706 20.5655 7.97417 20.3743 8.16896C19.9917 8.55853 19.3748 8.55853 18.9948 8.16636L16.9757 6.08735V19.2678C16.9757 19.8197 16.5386 20.269 16.0003 20.269C15.4619 20.269 15.0237 19.8197 15.0237 19.2678V3.66682C15.0237 3.26167 15.2618 2.89677 15.6279 2.74224ZM12.5448 5.80167C12.9248 5.4082 13.5417 5.40561 13.9243 5.79388C14.1168 5.98996 14.2143 6.24708 14.2143 6.50419C14.2143 6.75871 14.1193 7.01323 13.9319 7.20802L13.0084 8.16506C12.6297 8.55723 12.0115 8.55983 11.6302 8.17156C11.2452 7.78199 11.2426 7.15088 11.6226 6.75742L12.5448 5.80167Z" fill="#000"/>
</svg>
