<?xml version="1.0" standalone="no"?>
<!DOCTYPE svg PUBLIC "-//W3C//DTD SVG 20010904//EN"
 "http://www.w3.org/TR/2001/REC-SVG-20010904/DTD/svg10.dtd">
<svg version="1.0" xmlns="http://www.w3.org/2000/svg"
 width="96.000000pt" height="96.000000pt" viewBox="0 0 96.000000 96.000000"
 preserveAspectRatio="xMidYMid meet">

<g transform="translate(0.000000,96.000000) scale(0.100000,-0.100000)"
fill="#000000" stroke="none">
<path d="M495 745 c-53 -20 -95 -69 -95 -112 0 -43 17 -42 61 3 18 20 49 43
68 51 92 39 201 -41 201 -147 0 -46 17 -59 55 -42 34 16 93 -3 107 -33 14 -32
2 -87 -25 -113 -22 -21 -34 -22 -242 -24 l-220 -3 -3 -27 -3 -28 229 0 c221 0
230 1 263 23 67 44 90 146 48 213 -29 47 -57 64 -106 64 -38 0 -43 3 -43 23 0
29 -84 135 -117 148 -47 18 -136 20 -178 4z"/>
<path d="M310 466 l0 -196 30 0 30 0 -2 193 -3 192 -27 3 -28 3 0 -195z"/>
<path d="M233 631 c-22 -19 -23 -25 -23 -190 l0 -171 30 0 30 0 0 190 c0 105
-3 190 -7 190 -5 -1 -18 -9 -30 -19z"/>
<path d="M138 543 c-27 -28 -28 -32 -28 -145 l0 -116 26 -6 c15 -4 28 -5 30
-3 3 2 3 70 2 151 l-3 147 -27 -28z"/>
<path d="M26 475 c-33 -33 -33 -110 1 -147 35 -39 44 -24 41 69 -3 90 -12 107
-42 78z"/>
</g>
</svg>
