<svg width="241" height="185" viewBox="0 0 241 185" fill="none" xmlns="http://www.w3.org/2000/svg">
<path d="M143.422 15.5625C147.451 9.9386 153.241 5.32191 159.032 2.97162C170.613 -1.81293 178.083 1.6286 188.153 16.4019C199.586 35.157 203.042 49.9869 205.19 82.2942C204.602 90.6881 207.599 116.506 207.599 116.506C211.711 132.958 220.691 150.837 235.21 171.234C238.399 175.683 241.001 179.544 241.001 179.88C241.001 180.803 236.217 179.124 229.923 175.935C223.88 172.829 218.09 168.464 210.62 161.329C208.858 159.65 207.431 158.643 207.431 159.147C207.431 160.742 209.65 168.76 218.717 175.935C226.354 181.978 232.608 185 232.608 185C232.608 185 221.531 184.832 206.676 177.613C178.059 163.587 169.501 141.5 165.662 125.019C163.57 121.018 163.9 114.611 160.627 114.611C158.612 114.611 157.437 115.618 153.745 120.487C145.017 131.902 135.449 139.877 120.931 148.103C111.363 153.559 109.349 155.237 107.083 159.686C105.573 162.624 104.146 163.799 99.782 165.982C92.4807 169.675 80.8153 173.452 71.8355 175.047C61.2612 176.978 60.5058 176.81 58.4917 171.438C57.5685 169.087 56.1418 166.653 55.2187 166.15C53.2884 165.142 49.2601 165.646 40.616 167.996C31.2165 170.598 28.4471 169.843 21.2297 162.54C13.173 154.482 8.89292 145.836 8.47331 137.107C7.96977 127.37 8.55723 125.607 13.3409 122.669C19.2155 119.06 19.5512 118.136 18.7959 106.385C18.0406 93.7939 12.5856 67.1851 11.4945 70.5427C11.2428 71.2142 10.1518 74.8236 9.14469 78.5169C3.5 96.5 5.40658 108.24 2.5 113C1.49292 112.161 0.0809575 94.1297 0.416651 88.7575C1.59158 67.6888 3.4379 59.5467 9.48039 48.6346C27.2348 23.3143 55.2187 13.8837 92.6485 13.8837C107.558 14.8412 114.901 17.3504 125.882 25.3834C131.673 28.741 134.023 28.2374 137.967 23.0331C139.31 21.1025 141.828 17.7449 143.422 15.5625Z" fill="white"/>
</svg>
