<svg fill="#000000" xmlns="http://www.w3.org/2000/svg"  viewBox="0 0 48 48" width="24px" height="24px"><path d="M 24.042969 3 A 1.50015 1.50015 0 0 0 23.003906 3.3789062 L 19.326172 6.6464844 L 15.271484 4.2128906 A 1.50015 1.50015 0 0 0 13.076172 5.0253906 L 11.417969 10 L 5.5 10 A 1.50015 1.50015 0 0 0 4.3398438 12.449219 L 8.1933594 17.162109 L 6.1894531 20.771484 A 1.50015 1.50015 0 0 0 7.8632812 22.955078 L 10 22.421875 L 10 23.181641 L 10 24.253906 A 1.50015 1.50015 0 0 0 10.066406 25.001953 C 10.090591 25.380336 10.117566 25.757289 10.146484 26.130859 C 8.9362058 26.93607 8 28.127004 8 29.681641 C 8 31.875609 9.6358013 33.640223 11.726562 34.023438 C 14.001057 40.74678 18.501313 45.181641 24 45.181641 C 29.498687 45.181641 33.998942 40.746779 36.273438 34.023438 C 38.364199 33.640224 40 31.875609 40 29.681641 C 40 28.127004 39.063795 26.93607 37.853516 26.130859 C 37.882486 25.756646 37.909383 25.37905 37.933594 25 A 1.50015 1.50015 0 0 0 38.001953 24.271484 L 38.001953 22.330078 L 41.205078 22.970703 A 1.50015 1.50015 0 0 0 42.878906 20.908203 L 41.664062 18.074219 L 44.820312 12.210938 A 1.50015 1.50015 0 0 0 43.5 10 L 37.582031 10 L 35.923828 5.0253906 A 1.50015 1.50015 0 0 0 33.728516 4.2128906 L 29.580078 6.703125 L 24.882812 3.2871094 A 1.50015 1.50015 0 0 0 24.042969 3 z M 24.09375 6.4238281 L 28.617188 9.7128906 A 1.50015 1.50015 0 0 0 30.271484 9.7871094 L 33.667969 7.75 L 35.076172 11.974609 A 1.50015 1.50015 0 0 0 36.5 13 L 40.988281 13 L 38.679688 17.289062 A 1.50015 1.50015 0 0 0 38.621094 18.591797 L 38.998047 19.470703 L 36.876953 19.044922 C 32.779267 17.690236 28.491719 17 24.175781 17 L 23.958984 17 C 20.19852 17 16.455837 17.525304 12.839844 18.558594 L 12.839844 18.556641 L 11.087891 19.056641 A 1.50015 1.50015 0 0 0 11.082031 19.058594 L 10.490234 19.207031 L 11.310547 17.728516 A 1.50015 1.50015 0 0 0 11.160156 16.050781 L 8.6640625 13 L 12.5 13 A 1.50015 1.50015 0 0 0 13.923828 11.974609 L 15.332031 7.75 L 18.728516 9.7871094 A 1.50015 1.50015 0 0 0 20.496094 9.6210938 L 24.09375 6.4238281 z M 23.958984 20 L 24.175781 20 C 25.793988 20 27.400249 20.18072 29 20.388672 L 29 23 L 19 23 L 19 20.345703 C 20.642579 20.126245 22.298048 20 23.958984 20 z M 32 20.931641 C 33.008114 21.147449 34.013273 21.373019 35.001953 21.671875 L 35.001953 23 L 32 23 L 32 20.931641 z M 16 20.947266 L 16 23 L 13 23 L 13 21.630859 L 13.664062 21.443359 A 1.50015 1.50015 0 0 0 13.664062 21.441406 C 14.431161 21.222251 15.221801 21.116827 16 20.947266 z M 13.125 26 L 17.253906 26 A 1.50015 1.50015 0 0 0 17.740234 26 L 30.253906 26 A 1.50015 1.50015 0 0 0 30.740234 26 L 34.875 26 C 34.857431 26.221951 34.846935 26.447865 34.826172 26.667969 A 1.50015 1.50015 0 0 0 35.908203 28.251953 C 36.541495 28.432461 37 28.985331 37 29.681641 C 37 30.52814 36.346499 31.181641 35.5 31.181641 C 35.611301 31.181641 35.57564 31.179036 35.361328 31.160156 A 1.50015 1.50015 0 0 0 33.789062 32.232422 C 33.637099 32.750175 33.469461 33.242136 33.294922 33.720703 L 32.169922 33.158203 A 1.50015 1.50015 0 0 0 31.447266 32.990234 A 1.50015 1.50015 0 0 0 30.830078 35.841797 L 32.068359 36.460938 C 31.823109 36.908659 31.56493 37.324464 31.296875 37.720703 L 30.169922 37.158203 A 1.50015 1.50015 0 0 0 29.447266 36.990234 A 1.50015 1.50015 0 0 0 28.830078 39.841797 L 29.267578 40.060547 C 27.677766 41.45854 25.876386 42.181641 24 42.181641 C 22.123614 42.181641 20.322234 41.458541 18.732422 40.060547 L 19.169922 39.841797 A 1.50015 1.50015 0 0 0 18.507812 36.990234 A 1.50015 1.50015 0 0 0 17.830078 37.158203 L 16.703125 37.720703 C 16.43507 37.324464 16.176891 36.908659 15.931641 36.460938 L 17.169922 35.841797 A 1.50015 1.50015 0 0 0 16.507812 32.990234 A 1.50015 1.50015 0 0 0 15.830078 33.158203 L 14.705078 33.720703 C 14.530539 33.242136 14.362901 32.750175 14.210938 32.232422 A 1.50015 1.50015 0 0 0 12.638672 31.160156 C 12.424361 31.178996 12.388699 31.181641 12.5 31.181641 C 11.653501 31.181641 11 30.52814 11 29.681641 C 11 28.985331 11.458505 28.432461 12.091797 28.251953 A 1.50015 1.50015 0 0 0 13.173828 26.667969 C 13.153064 26.447866 13.142569 26.22195 13.125 26 z M 18 28 A 2 2 0 0 0 18 32 A 2 2 0 0 0 18 28 z M 30 28 A 2 2 0 0 0 30 32 A 2 2 0 0 0 30 28 z"/></svg>