<svg fill="#000000" xmlns="http://www.w3.org/2000/svg"  viewBox="0 0 48 48" width="24px" height="24px"><path d="M 15.5 6 A 1.50015 1.50015 0 0 0 15.166016 6.0332031 C 13.976857 6.1237747 12.917643 6.6766953 12.162109 7.5214844 A 1.50015 1.50015 0 0 0 11.931641 7.7675781 L 5.90625 15.691406 A 1.50015 1.50015 0 0 0 5.9003906 15.701172 C 5.3170169 16.47947 5 17.426275 5 18.400391 L 5 36.5 C 5 38.967501 7.0324991 41 9.5 41 L 15 41 L 15 44.5 A 1.50015 1.50015 0 0 0 16.5 46 L 18.671875 46 C 19.599988 46 20.490527 45.630566 21.146484 44.974609 L 25.121094 41 L 30.173828 41 C 31.441313 41 32.649666 40.463511 33.501953 39.527344 L 41.050781 31.224609 L 41.048828 31.224609 C 42.30393 29.844549 43 28.045092 43 26.179688 L 43 10.5 C 43 8.0324991 40.967501 6 38.5 6 L 15.5 6 z M 15.5 9 L 38.5 9 C 39.346499 9 40 9.6535009 40 10.5 L 40 26.179688 C 40 27.300283 39.583024 28.379091 38.830078 29.207031 L 36.291016 32 L 24.5 32 A 1.50015 1.50015 0 0 0 23.439453 32.439453 L 22 33.878906 L 22 33.5 A 1.50015 1.50015 0 0 0 20.5 32 L 14 32 L 14 10.5 C 14 10.2079 14.082043 9.9420614 14.21875 9.7148438 L 14.320312 9.5820312 A 1.50015 1.50015 0 0 0 14.384766 9.4902344 C 14.656554 9.1888768 15.049001 9 15.5 9 z M 11 13.949219 L 11 32.5 C 11 33.863594 12.136406 35 13.5 35 L 19 35 L 19 37.5 A 1.50015 1.50015 0 0 0 21.560547 38.560547 L 25.121094 35 L 33.5625 35 L 31.283203 37.507812 C 30.99749 37.821645 30.596343 38 30.173828 38 L 24.5 38 A 1.50015 1.50015 0 0 0 23.439453 38.439453 L 19.025391 42.853516 C 18.931348 42.947559 18.803762 43 18.671875 43 L 18 43 L 18 39.5 A 1.50015 1.50015 0 0 0 16.5 38 L 9.5 38 C 8.6535009 38 8 37.346499 8 36.5 L 8 18.400391 C 8 18.076506 8.1061556 17.759668 8.3007812 17.5 L 11 13.949219 z M 23.476562 14.978516 A 1.50015 1.50015 0 0 0 22 16.5 L 22 24.5 A 1.50015 1.50015 0 1 0 25 24.5 L 25 16.5 A 1.50015 1.50015 0 0 0 23.476562 14.978516 z M 31.476562 14.978516 A 1.50015 1.50015 0 0 0 30 16.5 L 30 24.5 A 1.50015 1.50015 0 1 0 33 24.5 L 33 16.5 A 1.50015 1.50015 0 0 0 31.476562 14.978516 z"/></svg>