<?xml version="1.0" standalone="no"?>
<!DOCTYPE svg PUBLIC "-//W3C//DTD SVG 20010904//EN"
 "http://www.w3.org/TR/2001/REC-SVG-20010904/DTD/svg10.dtd">
<svg version="1.0" xmlns="http://www.w3.org/2000/svg"
 width="96.000000pt" height="96.000000pt" viewBox="0 0 96.000000 96.000000"
 preserveAspectRatio="xMidYMid meet">

<g transform="translate(0.000000,96.000000) scale(0.100000,-0.100000)"
fill="#000000" stroke="none">
<path d="M386 870 c-63 -16 -153 -70 -197 -117 -22 -24 -55 -74 -72 -111 -29
-61 -32 -76 -32 -163 0 -90 2 -99 37 -171 45 -91 103 -147 196 -191 61 -29 76
-32 162 -32 86 0 101 3 162 32 93 44 151 100 196 191 35 72 37 81 37 172 0 91
-2 100 -37 172 -68 136 -188 217 -336 224 -42 2 -94 -1 -116 -6z m61 -227 c-3
-2 -27 -3 -55 -1 l-50 3 20 52 c10 29 33 67 51 85 l32 33 3 -84 c2 -46 1 -85
-1 -88z m122 114 c12 -19 27 -53 36 -76 l14 -41 -54 0 -55 0 0 85 c0 81 1 85
19 75 11 -5 29 -25 40 -43z m-258 -19 c-10 -24 -21 -55 -25 -70 -6 -26 -10
-28 -56 -28 -28 0 -50 2 -50 4 0 20 120 136 141 136 5 0 0 -19 -10 -42z m372
13 c32 -24 97 -96 97 -107 0 -2 -22 -4 -50 -4 -46 0 -50 2 -56 28 -4 15 -15
46 -25 70 -10 23 -15 42 -11 42 4 0 24 -13 45 -29z m-418 -271 l0 -100 -56 0
c-55 0 -57 1 -63 31 -3 17 -6 48 -6 69 0 21 3 52 6 69 6 30 8 31 63 31 l56 0
0 -100z m185 0 l0 -100 -59 0 c-58 0 -59 1 -65 31 -3 17 -6 48 -6 69 0 21 3
52 6 69 6 30 7 31 65 31 l59 0 0 -100z m184 69 c3 -17 6 -48 6 -69 0 -21 -3
-52 -6 -69 -6 -30 -7 -31 -65 -31 l-59 0 0 100 0 100 59 0 c58 0 59 -1 65 -31z
m180 0 c3 -17 6 -48 6 -69 0 -21 -3 -52 -6 -69 -6 -30 -8 -31 -63 -31 l-56 0
0 100 0 100 56 0 c55 0 57 -1 63 -31z m-528 -256 c4 -16 15 -47 25 -70 10 -24
15 -43 11 -43 -22 1 -142 116 -142 136 0 2 22 4 50 4 46 0 50 -2 56 -27z m164
-58 c0 -81 -1 -85 -19 -75 -24 12 -56 63 -76 119 l-14 41 54 0 55 0 0 -85z
m155 44 c-20 -56 -52 -107 -76 -119 -18 -10 -19 -6 -19 75 l0 85 55 0 54 0
-14 -41z m175 37 c0 -20 -120 -135 -142 -136 -4 0 1 19 11 43 10 23 21 54 25
70 6 25 10 27 56 27 28 0 50 -2 50 -4z"/>
</g>
</svg>
